<mxfile host="app.diagrams.net" agent="Mozilla/5.0 (Windows NT 10.0; Win64; x64) AppleWebKit/537.36 (KHTML, like Gecko) Chrome/132.0.0.0 Safari/537.36 OPR/117.0.0.0" version="26.2.12">
  <diagram name="PÃ¡gina-1" id="Y1FP3HlPy7rzhgfdf_Ig">
    <mxGraphModel grid="1" page="1" gridSize="10" guides="1" tooltips="1" connect="1" arrows="1" fold="1" pageScale="1" pageWidth="827" pageHeight="1169" math="0" shadow="0">
      <root>
        <mxCell id="0" />
        <mxCell id="1" parent="0" />
        <mxCell id="P4cT8IHg-RiuVcusC7Rd-1" value="UserModel" style="swimlane;fontStyle=1;align=center;verticalAlign=top;childLayout=stackLayout;horizontal=1;startSize=26;horizontalStack=0;resizeParent=1;resizeParentMax=0;resizeLast=0;collapsible=1;marginBottom=0;whiteSpace=wrap;html=1;" vertex="1" parent="1">
          <mxGeometry x="60" y="430" width="160" height="118" as="geometry" />
        </mxCell>
        <mxCell id="P4cT8IHg-RiuVcusC7Rd-2" value="name: String;&lt;div&gt;lastName:String;&lt;/div&gt;&lt;div&gt;email: String;&lt;/div&gt;&lt;div&gt;password: String;&lt;/div&gt;" style="text;strokeColor=none;fillColor=none;align=left;verticalAlign=top;spacingLeft=4;spacingRight=4;overflow=hidden;rotatable=0;points=[[0,0.5],[1,0.5]];portConstraint=eastwest;whiteSpace=wrap;html=1;" vertex="1" parent="P4cT8IHg-RiuVcusC7Rd-1">
          <mxGeometry y="26" width="160" height="84" as="geometry" />
        </mxCell>
        <mxCell id="P4cT8IHg-RiuVcusC7Rd-3" value="" style="line;strokeWidth=1;fillColor=none;align=left;verticalAlign=middle;spacingTop=-1;spacingLeft=3;spacingRight=3;rotatable=0;labelPosition=right;points=[];portConstraint=eastwest;strokeColor=inherit;" vertex="1" parent="P4cT8IHg-RiuVcusC7Rd-1">
          <mxGeometry y="110" width="160" height="8" as="geometry" />
        </mxCell>
        <mxCell id="P4cT8IHg-RiuVcusC7Rd-5" value="ProductModel" style="swimlane;fontStyle=1;align=center;verticalAlign=top;childLayout=stackLayout;horizontal=1;startSize=26;horizontalStack=0;resizeParent=1;resizeParentMax=0;resizeLast=0;collapsible=1;marginBottom=0;whiteSpace=wrap;html=1;" vertex="1" parent="1">
          <mxGeometry x="60" y="562" width="160" height="98" as="geometry" />
        </mxCell>
        <mxCell id="P4cT8IHg-RiuVcusC7Rd-6" value="productName: String;&lt;div&gt;quantity: Number;&lt;/div&gt;&lt;div&gt;value: Number;&lt;/div&gt;" style="text;strokeColor=none;fillColor=none;align=left;verticalAlign=top;spacingLeft=4;spacingRight=4;overflow=hidden;rotatable=0;points=[[0,0.5],[1,0.5]];portConstraint=eastwest;whiteSpace=wrap;html=1;" vertex="1" parent="P4cT8IHg-RiuVcusC7Rd-5">
          <mxGeometry y="26" width="160" height="64" as="geometry" />
        </mxCell>
        <mxCell id="P4cT8IHg-RiuVcusC7Rd-7" value="" style="line;strokeWidth=1;fillColor=none;align=left;verticalAlign=middle;spacingTop=-1;spacingLeft=3;spacingRight=3;rotatable=0;labelPosition=right;points=[];portConstraint=eastwest;strokeColor=inherit;" vertex="1" parent="P4cT8IHg-RiuVcusC7Rd-5">
          <mxGeometry y="90" width="160" height="8" as="geometry" />
        </mxCell>
        <mxCell id="P4cT8IHg-RiuVcusC7Rd-9" value="ProductController" style="swimlane;fontStyle=1;align=center;verticalAlign=top;childLayout=stackLayout;horizontal=1;startSize=30;horizontalStack=0;resizeParent=1;resizeParentMax=0;resizeLast=0;collapsible=1;marginBottom=0;whiteSpace=wrap;html=1;" vertex="1" parent="1">
          <mxGeometry x="320" y="562" width="160" height="84" as="geometry" />
        </mxCell>
        <mxCell id="P4cT8IHg-RiuVcusC7Rd-11" value="" style="line;strokeWidth=1;fillColor=none;align=left;verticalAlign=middle;spacingTop=-1;spacingLeft=3;spacingRight=3;rotatable=0;labelPosition=right;points=[];portConstraint=eastwest;strokeColor=inherit;" vertex="1" parent="P4cT8IHg-RiuVcusC7Rd-9">
          <mxGeometry y="30" width="160" height="8" as="geometry" />
        </mxCell>
        <mxCell id="P4cT8IHg-RiuVcusC7Rd-12" value="uploadProductsdata();&lt;div&gt;getProductDatas();&lt;/div&gt;" style="text;strokeColor=none;fillColor=none;align=left;verticalAlign=top;spacingLeft=4;spacingRight=4;overflow=hidden;rotatable=0;points=[[0,0.5],[1,0.5]];portConstraint=eastwest;whiteSpace=wrap;html=1;" vertex="1" parent="P4cT8IHg-RiuVcusC7Rd-9">
          <mxGeometry y="38" width="160" height="46" as="geometry" />
        </mxCell>
        <mxCell id="P4cT8IHg-RiuVcusC7Rd-13" value="UserController" style="swimlane;fontStyle=1;align=center;verticalAlign=top;childLayout=stackLayout;horizontal=1;startSize=26;horizontalStack=0;resizeParent=1;resizeParentMax=0;resizeLast=0;collapsible=1;marginBottom=0;whiteSpace=wrap;html=1;" vertex="1" parent="1">
          <mxGeometry x="320" y="430" width="160" height="90" as="geometry" />
        </mxCell>
        <mxCell id="P4cT8IHg-RiuVcusC7Rd-15" value="" style="line;strokeWidth=1;fillColor=none;align=left;verticalAlign=middle;spacingTop=-1;spacingLeft=3;spacingRight=3;rotatable=0;labelPosition=right;points=[];portConstraint=eastwest;strokeColor=inherit;" vertex="1" parent="P4cT8IHg-RiuVcusC7Rd-13">
          <mxGeometry y="26" width="160" height="8" as="geometry" />
        </mxCell>
        <mxCell id="P4cT8IHg-RiuVcusC7Rd-16" value="+&amp;nbsp;createUser();&lt;div&gt;+&amp;nbsp;validateLogin();&lt;/div&gt;&lt;div&gt;+&amp;nbsp;validateToken();&lt;/div&gt;" style="text;strokeColor=none;fillColor=none;align=left;verticalAlign=top;spacingLeft=4;spacingRight=4;overflow=hidden;rotatable=0;points=[[0,0.5],[1,0.5]];portConstraint=eastwest;whiteSpace=wrap;html=1;" vertex="1" parent="P4cT8IHg-RiuVcusC7Rd-13">
          <mxGeometry y="34" width="160" height="56" as="geometry" />
        </mxCell>
        <mxCell id="SzqjxHG-AdRgiQ825ZQZ-1" value="AuthContext" style="swimlane;fontStyle=1;align=center;verticalAlign=top;childLayout=stackLayout;horizontal=1;startSize=26;horizontalStack=0;resizeParent=1;resizeParentMax=0;resizeLast=0;collapsible=1;marginBottom=0;whiteSpace=wrap;html=1;" vertex="1" parent="1">
          <mxGeometry x="320" y="950" width="160" height="84" as="geometry" />
        </mxCell>
        <mxCell id="SzqjxHG-AdRgiQ825ZQZ-3" value="" style="line;strokeWidth=1;fillColor=none;align=left;verticalAlign=middle;spacingTop=-1;spacingLeft=3;spacingRight=3;rotatable=0;labelPosition=right;points=[];portConstraint=eastwest;strokeColor=inherit;" vertex="1" parent="SzqjxHG-AdRgiQ825ZQZ-1">
          <mxGeometry y="26" width="160" height="8" as="geometry" />
        </mxCell>
        <mxCell id="SzqjxHG-AdRgiQ825ZQZ-4" value="login();&lt;div&gt;logout();&lt;/div&gt;" style="text;strokeColor=none;fillColor=none;align=left;verticalAlign=top;spacingLeft=4;spacingRight=4;overflow=hidden;rotatable=0;points=[[0,0.5],[1,0.5]];portConstraint=eastwest;whiteSpace=wrap;html=1;" vertex="1" parent="SzqjxHG-AdRgiQ825ZQZ-1">
          <mxGeometry y="34" width="160" height="50" as="geometry" />
        </mxCell>
        <mxCell id="SzqjxHG-AdRgiQ825ZQZ-13" value="ModalLogin" style="swimlane;fontStyle=1;align=center;verticalAlign=top;childLayout=stackLayout;horizontal=1;startSize=26;horizontalStack=0;resizeParent=1;resizeParentMax=0;resizeLast=0;collapsible=1;marginBottom=0;whiteSpace=wrap;html=1;" vertex="1" parent="1">
          <mxGeometry x="60" y="950" width="160" height="114" as="geometry" />
        </mxCell>
        <mxCell id="SzqjxHG-AdRgiQ825ZQZ-14" value="email: String;&lt;div&gt;password: String;&lt;/div&gt;" style="text;strokeColor=none;fillColor=none;align=left;verticalAlign=top;spacingLeft=4;spacingRight=4;overflow=hidden;rotatable=0;points=[[0,0.5],[1,0.5]];portConstraint=eastwest;whiteSpace=wrap;html=1;" vertex="1" parent="SzqjxHG-AdRgiQ825ZQZ-13">
          <mxGeometry y="26" width="160" height="54" as="geometry" />
        </mxCell>
        <mxCell id="SzqjxHG-AdRgiQ825ZQZ-15" value="" style="line;strokeWidth=1;fillColor=none;align=left;verticalAlign=middle;spacingTop=-1;spacingLeft=3;spacingRight=3;rotatable=0;labelPosition=right;points=[];portConstraint=eastwest;strokeColor=inherit;" vertex="1" parent="SzqjxHG-AdRgiQ825ZQZ-13">
          <mxGeometry y="80" width="160" height="8" as="geometry" />
        </mxCell>
        <mxCell id="SzqjxHG-AdRgiQ825ZQZ-16" value="+ loginClick();" style="text;strokeColor=none;fillColor=none;align=left;verticalAlign=top;spacingLeft=4;spacingRight=4;overflow=hidden;rotatable=0;points=[[0,0.5],[1,0.5]];portConstraint=eastwest;whiteSpace=wrap;html=1;" vertex="1" parent="SzqjxHG-AdRgiQ825ZQZ-13">
          <mxGeometry y="88" width="160" height="26" as="geometry" />
        </mxCell>
        <mxCell id="SzqjxHG-AdRgiQ825ZQZ-17" value="ProductsRegisterForm" style="swimlane;fontStyle=1;align=center;verticalAlign=top;childLayout=stackLayout;horizontal=1;startSize=26;horizontalStack=0;resizeParent=1;resizeParentMax=0;resizeLast=0;collapsible=1;marginBottom=0;whiteSpace=wrap;html=1;" vertex="1" parent="1">
          <mxGeometry x="60" y="730" width="160" height="190" as="geometry" />
        </mxCell>
        <mxCell id="SzqjxHG-AdRgiQ825ZQZ-18" value="productName: String;&lt;div&gt;productQuantity: Number;&lt;/div&gt;&lt;div&gt;productValue: Number;&lt;/div&gt;&lt;div&gt;productImage: String&lt;/div&gt;" style="text;strokeColor=none;fillColor=none;align=left;verticalAlign=top;spacingLeft=4;spacingRight=4;overflow=hidden;rotatable=0;points=[[0,0.5],[1,0.5]];portConstraint=eastwest;whiteSpace=wrap;html=1;" vertex="1" parent="SzqjxHG-AdRgiQ825ZQZ-17">
          <mxGeometry y="26" width="160" height="104" as="geometry" />
        </mxCell>
        <mxCell id="SzqjxHG-AdRgiQ825ZQZ-19" value="" style="line;strokeWidth=1;fillColor=none;align=left;verticalAlign=middle;spacingTop=-1;spacingLeft=3;spacingRight=3;rotatable=0;labelPosition=right;points=[];portConstraint=eastwest;strokeColor=inherit;" vertex="1" parent="SzqjxHG-AdRgiQ825ZQZ-17">
          <mxGeometry y="130" width="160" height="8" as="geometry" />
        </mxCell>
        <mxCell id="SzqjxHG-AdRgiQ825ZQZ-20" value="&lt;div&gt;+ handleFormSubmit()&lt;/div&gt;&lt;div&gt;+ handleImageChange()&lt;/div&gt;" style="text;strokeColor=none;fillColor=none;align=left;verticalAlign=top;spacingLeft=4;spacingRight=4;overflow=hidden;rotatable=0;points=[[0,0.5],[1,0.5]];portConstraint=eastwest;whiteSpace=wrap;html=1;" vertex="1" parent="SzqjxHG-AdRgiQ825ZQZ-17">
          <mxGeometry y="138" width="160" height="52" as="geometry" />
        </mxCell>
        <mxCell id="SzqjxHG-AdRgiQ825ZQZ-21" value="ShoopPage" style="swimlane;fontStyle=1;align=center;verticalAlign=top;childLayout=stackLayout;horizontal=1;startSize=26;horizontalStack=0;resizeParent=1;resizeParentMax=0;resizeLast=0;collapsible=1;marginBottom=0;whiteSpace=wrap;html=1;" vertex="1" parent="1">
          <mxGeometry x="320" y="740" width="160" height="104" as="geometry" />
        </mxCell>
        <mxCell id="SzqjxHG-AdRgiQ825ZQZ-22" value="data: Array;&lt;div&gt;products: Array;&lt;/div&gt;" style="text;strokeColor=none;fillColor=none;align=left;verticalAlign=top;spacingLeft=4;spacingRight=4;overflow=hidden;rotatable=0;points=[[0,0.5],[1,0.5]];portConstraint=eastwest;whiteSpace=wrap;html=1;" vertex="1" parent="SzqjxHG-AdRgiQ825ZQZ-21">
          <mxGeometry y="26" width="160" height="44" as="geometry" />
        </mxCell>
        <mxCell id="SzqjxHG-AdRgiQ825ZQZ-23" value="" style="line;strokeWidth=1;fillColor=none;align=left;verticalAlign=middle;spacingTop=-1;spacingLeft=3;spacingRight=3;rotatable=0;labelPosition=right;points=[];portConstraint=eastwest;strokeColor=inherit;" vertex="1" parent="SzqjxHG-AdRgiQ825ZQZ-21">
          <mxGeometry y="70" width="160" height="8" as="geometry" />
        </mxCell>
        <mxCell id="SzqjxHG-AdRgiQ825ZQZ-24" value="+&amp;nbsp;addToCart(productData)" style="text;strokeColor=none;fillColor=none;align=left;verticalAlign=top;spacingLeft=4;spacingRight=4;overflow=hidden;rotatable=0;points=[[0,0.5],[1,0.5]];portConstraint=eastwest;whiteSpace=wrap;html=1;" vertex="1" parent="SzqjxHG-AdRgiQ825ZQZ-21">
          <mxGeometry y="78" width="160" height="26" as="geometry" />
        </mxCell>
        <mxCell id="SzqjxHG-AdRgiQ825ZQZ-25" value="RegisterContainer" style="swimlane;fontStyle=1;align=center;verticalAlign=top;childLayout=stackLayout;horizontal=1;startSize=26;horizontalStack=0;resizeParent=1;resizeParentMax=0;resizeLast=0;collapsible=1;marginBottom=0;whiteSpace=wrap;html=1;" vertex="1" parent="1">
          <mxGeometry x="640" y="430" width="160" height="210" as="geometry" />
        </mxCell>
        <mxCell id="SzqjxHG-AdRgiQ825ZQZ-26" value="&lt;div&gt;name: String;&amp;nbsp;&amp;nbsp;&lt;/div&gt;&lt;div&gt;lastName: String;&amp;nbsp;&amp;nbsp;&lt;/div&gt;&lt;div&gt;email: String;&lt;/div&gt;&lt;div&gt;&lt;span style=&quot;background-color: transparent; color: light-dark(rgb(0, 0, 0), rgb(255, 255, 255));&quot;&gt;password: String;&lt;/span&gt;&lt;/div&gt;&lt;div&gt;errorMessage: Boolean;&amp;nbsp;&amp;nbsp;&lt;/div&gt;&lt;div&gt;successMessage:Boolean&lt;/div&gt;" style="text;strokeColor=none;fillColor=none;align=left;verticalAlign=top;spacingLeft=4;spacingRight=4;overflow=hidden;rotatable=0;points=[[0,0.5],[1,0.5]];portConstraint=eastwest;whiteSpace=wrap;html=1;" vertex="1" parent="SzqjxHG-AdRgiQ825ZQZ-25">
          <mxGeometry y="26" width="160" height="94" as="geometry" />
        </mxCell>
        <mxCell id="SzqjxHG-AdRgiQ825ZQZ-27" value="" style="line;strokeWidth=1;fillColor=none;align=left;verticalAlign=middle;spacingTop=-1;spacingLeft=3;spacingRight=3;rotatable=0;labelPosition=right;points=[];portConstraint=eastwest;strokeColor=inherit;" vertex="1" parent="SzqjxHG-AdRgiQ825ZQZ-25">
          <mxGeometry y="120" width="160" height="8" as="geometry" />
        </mxCell>
        <mxCell id="SzqjxHG-AdRgiQ825ZQZ-28" value="&lt;div&gt;+ handleSubmit():&lt;/div&gt;&lt;div&gt;+ handleNameChange()&lt;/div&gt;&lt;div&gt;+ handleEmailChange()&lt;/div&gt;&lt;div&gt;+ handlePasswordChange()&lt;/div&gt;" style="text;strokeColor=none;fillColor=none;align=left;verticalAlign=top;spacingLeft=4;spacingRight=4;overflow=hidden;rotatable=0;points=[[0,0.5],[1,0.5]];portConstraint=eastwest;whiteSpace=wrap;html=1;" vertex="1" parent="SzqjxHG-AdRgiQ825ZQZ-25">
          <mxGeometry y="128" width="160" height="82" as="geometry" />
        </mxCell>
        <mxCell id="4yOyN7AzZEc8oYdd8Ltr-21" value="CartLateralButton" style="swimlane;fontStyle=1;align=center;verticalAlign=top;childLayout=stackLayout;horizontal=1;startSize=26;horizontalStack=0;resizeParent=1;resizeParentMax=0;resizeLast=0;collapsible=1;marginBottom=0;whiteSpace=wrap;html=1;" vertex="1" parent="1">
          <mxGeometry x="640" y="920" width="160" height="114" as="geometry" />
        </mxCell>
        <mxCell id="4yOyN7AzZEc8oYdd8Ltr-22" value="lister: Boolean;&lt;div&gt;totalValue: Number&lt;/div&gt;" style="text;strokeColor=none;fillColor=none;align=left;verticalAlign=top;spacingLeft=4;spacingRight=4;overflow=hidden;rotatable=0;points=[[0,0.5],[1,0.5]];portConstraint=eastwest;whiteSpace=wrap;html=1;" vertex="1" parent="4yOyN7AzZEc8oYdd8Ltr-21">
          <mxGeometry y="26" width="160" height="54" as="geometry" />
        </mxCell>
        <mxCell id="4yOyN7AzZEc8oYdd8Ltr-23" value="" style="line;strokeWidth=1;fillColor=none;align=left;verticalAlign=middle;spacingTop=-1;spacingLeft=3;spacingRight=3;rotatable=0;labelPosition=right;points=[];portConstraint=eastwest;strokeColor=inherit;" vertex="1" parent="4yOyN7AzZEc8oYdd8Ltr-21">
          <mxGeometry y="80" width="160" height="8" as="geometry" />
        </mxCell>
        <mxCell id="4yOyN7AzZEc8oYdd8Ltr-24" value="+ toggleList();" style="text;strokeColor=none;fillColor=none;align=left;verticalAlign=top;spacingLeft=4;spacingRight=4;overflow=hidden;rotatable=0;points=[[0,0.5],[1,0.5]];portConstraint=eastwest;whiteSpace=wrap;html=1;" vertex="1" parent="4yOyN7AzZEc8oYdd8Ltr-21">
          <mxGeometry y="88" width="160" height="26" as="geometry" />
        </mxCell>
        <mxCell id="4yOyN7AzZEc8oYdd8Ltr-25" value="ProductCard" style="swimlane;fontStyle=1;align=center;verticalAlign=top;childLayout=stackLayout;horizontal=1;startSize=26;horizontalStack=0;resizeParent=1;resizeParentMax=0;resizeLast=0;collapsible=1;marginBottom=0;whiteSpace=wrap;html=1;" vertex="1" parent="1">
          <mxGeometry x="640" y="740" width="160" height="130" as="geometry" />
        </mxCell>
        <mxCell id="4yOyN7AzZEc8oYdd8Ltr-26" value="quantity: Number" style="text;strokeColor=none;fillColor=none;align=left;verticalAlign=top;spacingLeft=4;spacingRight=4;overflow=hidden;rotatable=0;points=[[0,0.5],[1,0.5]];portConstraint=eastwest;whiteSpace=wrap;html=1;" vertex="1" parent="4yOyN7AzZEc8oYdd8Ltr-25">
          <mxGeometry y="26" width="160" height="26" as="geometry" />
        </mxCell>
        <mxCell id="4yOyN7AzZEc8oYdd8Ltr-27" value="" style="line;strokeWidth=1;fillColor=none;align=left;verticalAlign=middle;spacingTop=-1;spacingLeft=3;spacingRight=3;rotatable=0;labelPosition=right;points=[];portConstraint=eastwest;strokeColor=inherit;" vertex="1" parent="4yOyN7AzZEc8oYdd8Ltr-25">
          <mxGeometry y="52" width="160" height="8" as="geometry" />
        </mxCell>
        <mxCell id="4yOyN7AzZEc8oYdd8Ltr-28" value="+ handleIncremente();&lt;div&gt;+ handleDecrement();&lt;/div&gt;&lt;div&gt;+ addToCart()&lt;/div&gt;" style="text;strokeColor=none;fillColor=none;align=left;verticalAlign=top;spacingLeft=4;spacingRight=4;overflow=hidden;rotatable=0;points=[[0,0.5],[1,0.5]];portConstraint=eastwest;whiteSpace=wrap;html=1;" vertex="1" parent="4yOyN7AzZEc8oYdd8Ltr-25">
          <mxGeometry y="60" width="160" height="70" as="geometry" />
        </mxCell>
        <mxCell id="TNGJdtPsFD_Fr38GxqO2-15" value="" style="endArrow=open;endSize=12;dashed=1;html=1;rounded=0;fontSize=12;curved=1;exitX=0.5;exitY=0;exitDx=0;exitDy=0;entryX=0.497;entryY=1.019;entryDx=0;entryDy=0;entryPerimeter=0;" edge="1" parent="1" source="SzqjxHG-AdRgiQ825ZQZ-21" target="P4cT8IHg-RiuVcusC7Rd-12">
          <mxGeometry width="160" relative="1" as="geometry">
            <mxPoint x="-460" y="1160" as="sourcePoint" />
            <mxPoint x="401" y="652" as="targetPoint" />
          </mxGeometry>
        </mxCell>
        <mxCell id="TNGJdtPsFD_Fr38GxqO2-19" value="" style="endArrow=open;endSize=12;dashed=1;html=1;rounded=0;fontSize=12;curved=1;exitX=1;exitY=0.25;exitDx=0;exitDy=0;entryX=1;entryY=0.25;entryDx=0;entryDy=0;" edge="1" parent="1" source="SzqjxHG-AdRgiQ825ZQZ-1" target="P4cT8IHg-RiuVcusC7Rd-13">
          <mxGeometry width="160" relative="1" as="geometry">
            <mxPoint x="650" y="750" as="sourcePoint" />
            <mxPoint x="810" y="750" as="targetPoint" />
            <Array as="points">
              <mxPoint x="780" y="640" />
            </Array>
          </mxGeometry>
        </mxCell>
        <mxCell id="TNGJdtPsFD_Fr38GxqO2-20" value="" style="endArrow=none;html=1;edgeStyle=orthogonalEdgeStyle;rounded=0;fontSize=12;startSize=8;endSize=8;curved=1;entryX=0;entryY=0.25;entryDx=0;entryDy=0;exitX=1;exitY=0.25;exitDx=0;exitDy=0;" edge="1" parent="1" source="P4cT8IHg-RiuVcusC7Rd-5" target="P4cT8IHg-RiuVcusC7Rd-9">
          <mxGeometry relative="1" as="geometry">
            <mxPoint x="-170" y="810" as="sourcePoint" />
            <mxPoint x="-10" y="810" as="targetPoint" />
            <Array as="points">
              <mxPoint x="320" y="587" />
            </Array>
          </mxGeometry>
        </mxCell>
        <mxCell id="TNGJdtPsFD_Fr38GxqO2-24" value="" style="endArrow=none;html=1;edgeStyle=orthogonalEdgeStyle;rounded=0;fontSize=12;startSize=8;endSize=8;curved=1;entryX=0;entryY=0.25;entryDx=0;entryDy=0;exitX=1.012;exitY=-0.013;exitDx=0;exitDy=0;exitPerimeter=0;" edge="1" parent="1" source="P4cT8IHg-RiuVcusC7Rd-2" target="P4cT8IHg-RiuVcusC7Rd-13">
          <mxGeometry relative="1" as="geometry">
            <mxPoint x="-80" y="760" as="sourcePoint" />
            <mxPoint x="80" y="760" as="targetPoint" />
            <Array as="points">
              <mxPoint x="222" y="453" />
            </Array>
          </mxGeometry>
        </mxCell>
        <mxCell id="TNGJdtPsFD_Fr38GxqO2-27" value="" style="endArrow=open;endSize=12;dashed=1;html=1;rounded=0;fontSize=12;curved=1;entryX=0;entryY=0.25;entryDx=0;entryDy=0;exitX=1;exitY=0.25;exitDx=0;exitDy=0;" edge="1" parent="1" source="SzqjxHG-AdRgiQ825ZQZ-13" target="SzqjxHG-AdRgiQ825ZQZ-1">
          <mxGeometry width="160" relative="1" as="geometry">
            <mxPoint x="-210" y="1220" as="sourcePoint" />
            <mxPoint x="-50" y="1220" as="targetPoint" />
          </mxGeometry>
        </mxCell>
        <mxCell id="TNGJdtPsFD_Fr38GxqO2-29" value="" style="endArrow=none;html=1;edgeStyle=orthogonalEdgeStyle;rounded=0;fontSize=12;startSize=8;endSize=8;curved=1;entryX=0.004;entryY=0.18;entryDx=0;entryDy=0;entryPerimeter=0;exitX=1.022;exitY=1.057;exitDx=0;exitDy=0;exitPerimeter=0;" edge="1" parent="1" source="SzqjxHG-AdRgiQ825ZQZ-22" target="4yOyN7AzZEc8oYdd8Ltr-21">
          <mxGeometry relative="1" as="geometry">
            <mxPoint x="-150" y="970" as="sourcePoint" />
            <mxPoint x="10" y="970" as="targetPoint" />
          </mxGeometry>
        </mxCell>
        <mxCell id="TNGJdtPsFD_Fr38GxqO2-32" value="" style="endArrow=open;endSize=12;dashed=1;html=1;rounded=0;fontSize=12;curved=1;exitX=0.5;exitY=0;exitDx=0;exitDy=0;" edge="1" parent="1" source="4yOyN7AzZEc8oYdd8Ltr-21">
          <mxGeometry width="160" relative="1" as="geometry">
            <mxPoint x="-180" y="920" as="sourcePoint" />
            <mxPoint x="720" y="870" as="targetPoint" />
          </mxGeometry>
        </mxCell>
        <mxCell id="TNGJdtPsFD_Fr38GxqO2-33" value="" style="endArrow=none;html=1;edgeStyle=orthogonalEdgeStyle;rounded=0;fontSize=12;startSize=8;endSize=8;curved=1;exitX=1;exitY=0.5;exitDx=0;exitDy=0;entryX=0.038;entryY=0.921;entryDx=0;entryDy=0;entryPerimeter=0;" edge="1" parent="1" source="SzqjxHG-AdRgiQ825ZQZ-22" target="4yOyN7AzZEc8oYdd8Ltr-26">
          <mxGeometry relative="1" as="geometry">
            <mxPoint x="480" y="791.4100000000001" as="sourcePoint" />
            <mxPoint x="640" y="791.4100000000001" as="targetPoint" />
          </mxGeometry>
        </mxCell>
        <mxCell id="TNGJdtPsFD_Fr38GxqO2-36" value="" style="endArrow=open;endSize=12;dashed=1;html=1;rounded=0;fontSize=12;curved=1;exitX=0.003;exitY=0.082;exitDx=0;exitDy=0;exitPerimeter=0;entryX=1;entryY=0.5;entryDx=0;entryDy=0;" edge="1" parent="1" source="SzqjxHG-AdRgiQ825ZQZ-26" target="P4cT8IHg-RiuVcusC7Rd-16">
          <mxGeometry x="-0.0016" width="160" relative="1" as="geometry">
            <mxPoint x="430" y="1310" as="sourcePoint" />
            <mxPoint x="480" y="1009" as="targetPoint" />
            <mxPoint as="offset" />
          </mxGeometry>
        </mxCell>
        <mxCell id="TNGJdtPsFD_Fr38GxqO2-37" value="" style="endArrow=open;endSize=12;dashed=1;html=1;rounded=0;fontSize=12;curved=1;entryX=0;entryY=0.5;entryDx=0;entryDy=0;exitX=1;exitY=0.5;exitDx=0;exitDy=0;" edge="1" parent="1" source="SzqjxHG-AdRgiQ825ZQZ-18" target="P4cT8IHg-RiuVcusC7Rd-12">
          <mxGeometry width="160" relative="1" as="geometry">
            <mxPoint x="-130" y="860" as="sourcePoint" />
            <mxPoint x="30" y="860" as="targetPoint" />
          </mxGeometry>
        </mxCell>
      </root>
    </mxGraphModel>
  </diagram>
</mxfile>
